<svg xmlns="http://www.w3.org/2000/svg" width="34.493" height="38.63" viewBox="0 0 34.493 38.63">
  <path id="Bell_Icon" data-name="Bell Icon" d="M448.966,1175.268c-1.679,8.791-5.611,13.006-3,18.228a2.462,2.462,0,0,1,.533,2.47c-.389.8-1.369,1.123-2.705,1.123-3.926,0-10.922-2.818-14.989-4.787a.725.725,0,1,1,.635-1.3c9.349,4.527,15.309,5.237,15.751,4.334.307-.629-1.649-2.864-6.261-5.851a65.735,65.735,0,0,0-6.889-3.812,63.814,63.814,0,0,0-8.923-3.576.725.725,0,1,1,.426-1.386,65.284,65.284,0,0,1,9.132,3.659,59.082,59.082,0,0,1,11.073,6.824,10.8,10.8,0,0,1,.3-4.485c.242-1.038.74-2.431,1.275-3.971a52.574,52.574,0,0,0,2.214-7.737c1.656-8.686-3.648-11.084-3.875-11.182l-.059-.025-.069-.036a9.349,9.349,0,0,0-3.963-.856c-3.072,0-5.873,1.443-8.324,4.29a61.975,61.975,0,0,0-4.6,6.221c-2.253,3.359-4.126,6.145-7.426,7.246a.72.72,0,0,1-.723.417c-1.63-.159-2.148.138-2.21.266-.094.193.164,1.181,2.5,3.136a.725.725,0,0,1-.934,1.11c-2.513-2.1-3.454-3.7-2.877-4.88.353-.723,1.179-1.089,2.491-1.118,5.538-.889,6.828-6.556,12.669-13.34,3.294-3.824,6.759-4.794,9.427-4.794a11.142,11.142,0,0,1,1.627.122,3.308,3.308,0,0,1,5.1-2.619,3.1,3.1,0,0,1,1.644,2.425,3.535,3.535,0,0,1-1.244,2.979C448.362,1166.179,450.061,1169.529,448.966,1175.268Zm-3.324-15.024a2.087,2.087,0,0,0-2.171-.059,1.963,1.963,0,0,0-.82,1.7,8.612,8.612,0,0,1,1.577.6,6.679,6.679,0,0,1,1.408.881,2.133,2.133,0,0,0,.864-1.831A1.64,1.64,0,0,0,445.642,1160.244Zm-23.064,25.472a4.273,4.273,0,0,1,2,.5l1.089-1.393a.73.73,0,0,1,1.02-.126.722.722,0,0,1,.127,1.016l-1.088,1.392a4.235,4.235,0,0,1,1.133,2.88,4.282,4.282,0,1,1-4.283-4.265Zm0,7.083a2.818,2.818,0,1,0-2.828-2.818A2.826,2.826,0,0,0,422.578,1192.8Z" transform="translate(-414.82 -1158.458)" fill="#fefefe"/>
</svg>
