<svg xmlns="http://www.w3.org/2000/svg" width="34.995" height="27.448" viewBox="0 0 34.995 27.448">
  <path id="Envelop_Icon" data-name="Envelop Icon" d="M713.19,1191.5H684.676a3.258,3.258,0,0,1-3.24-3.267v-20.913a3.258,3.258,0,0,1,3.24-3.268H713.19a3.258,3.258,0,0,1,3.24,3.268v20.913A3.258,3.258,0,0,1,713.19,1191.5Zm1.944-24.18a1.955,1.955,0,0,0-1.944-1.961H684.676a1.955,1.955,0,0,0-1.944,1.961v20.913a1.955,1.955,0,0,0,1.944,1.961H713.19a1.955,1.955,0,0,0,1.944-1.961Zm-13.816,11.2a3.741,3.741,0,0,1-4.771,0l-12.3-10.708a.657.657,0,0,1-.067-.922.644.644,0,0,1,.914-.067l12.3,10.708a2.445,2.445,0,0,0,3.077,0l12.3-10.708a.644.644,0,0,1,.914.067.657.657,0,0,1-.067.922Z" transform="translate(-681.435 -1164.049)" fill="#fefefe"/>
</svg>
