<svg xmlns="http://www.w3.org/2000/svg" width="29.474" height="33.156" viewBox="0 0 29.474 33.156">
  <path id="Drawer_Icon" data-name="Drawer Icon" d="M981.105,1194.352h-2.456a1.844,1.844,0,0,1-1.842-1.841c.005.038-.223-.615-2.456-.615H962.07c-2.234,0-2.458.665-2.46.672a1.826,1.826,0,0,1-1.838,1.784h-2.456a1.844,1.844,0,0,1-1.842-1.842v-28.244a3.074,3.074,0,0,1,3.07-3.07h23.333a3.074,3.074,0,0,1,3.07,3.07v28.244A1.844,1.844,0,0,1,981.105,1194.352Zm.614-30.086a1.844,1.844,0,0,0-1.842-1.842H956.544a1.844,1.844,0,0,0-1.842,1.842v9.824h27.018Zm0,11.052H954.7v11.666h27.018Zm0,15.35v-2.456H954.7v4.3a.614.614,0,0,0,.614.614h2.456a.614.614,0,0,0,.614-.614c0-.188.1-1.842,3.684-1.842h12.281c3.581,0,3.684,1.653,3.684,1.842a.614.614,0,0,0,.614.614h2.456a.614.614,0,0,0,.614-.614Zm-17.807-11.052a.614.614,0,0,1,.614.614v.921c0,.105.239.307.614.307h6.14c.375,0,.614-.2.614-.307v-.921a.614.614,0,1,1,1.228,0v.921a1.712,1.712,0,0,1-1.842,1.535h-6.14a1.712,1.712,0,0,1-1.842-1.535v-.921A.614.614,0,0,1,963.912,1179.615Zm0-12.894a.614.614,0,0,1,.614.614v.921c0,.105.239.307.614.307h6.14c.375,0,.614-.2.614-.307v-.921a.614.614,0,0,1,1.228,0v.921a1.711,1.711,0,0,1-1.842,1.535h-6.14a1.711,1.711,0,0,1-1.842-1.535v-.921A.614.614,0,0,1,963.912,1166.722Z" transform="translate(-953.474 -1161.196)" fill="#fefefe"/>
</svg>
