<svg xmlns="http://www.w3.org/2000/svg" width="128.948" height="30.95" viewBox="0 0 128.948 30.95">
  <g id="Social_Media_Icons" data-name="Social Media Icons" transform="translate(-636.631 -3889.561)">
    <path id="google" d="M760.168,3896.961v5.23H758v-5.23h-5.411v-2.138H758v-5.23h2.164v5.23h5.411v2.138Zm-14.966-5.3a5.485,5.485,0,0,1,3.046,5,5.794,5.794,0,0,1-2.681,4.505c-1.473,1.12-1.753,1.589-1.753,2.542,0,.812,1.579,2.2,2.4,2.763,2.413,1.66,3.126,3.2,3.126,5.773,0,3.209-3.126,6.793-8.908,6.793-5.073,0-9.487-2.4-9.487-5.611,0-3.258,4.039-6.4,9.111-6.4.553,0,1.059-.021,1.583-.021a3.443,3.443,0,0,1-1.243-2.467,3.655,3.655,0,0,1,.463-1.684c-.276.019-.557-.025-.846-.025a6.6,6.6,0,0,1-6.957-6.554c0-3.495,3.854-6.712,7.95-6.712h9.134l-2.044,2.1Zm-4.177,16.19c-3.506-.036-6.647,2.079-6.647,4.62,0,2.592,2.532,4.488,6.038,4.488,4.928,0,6.647-1.763,6.647-4.355a3.9,3.9,0,0,0-.112-.917c-.385-1.467-1.75-2.193-3.654-3.48A7.823,7.823,0,0,0,741.025,3907.855Zm3.939-11.153c-.407-3-2.745-5.417-5.1-5.485s-3.93,2.232-3.523,5.237,2.642,5.5,5,5.566S745.369,3899.709,744.964,3896.7Z" fill="#faefe9"/>
    <path id="twitter" d="M702.954,3889.565a7.826,7.826,0,0,1,5.975,2.338,12.371,12.371,0,0,0,3.872-1.286l.94-.508a7.45,7.45,0,0,1-2.453,3.5,3.6,3.6,0,0,1-.83.58v.018a14.323,14.323,0,0,0,4.278-1.142v.019a12.094,12.094,0,0,1-2.563,2.9l-1.18.924a21.044,21.044,0,0,1-.35,4.784c-1.888,8.363-6.889,14.041-14.807,16.473a22.957,22.957,0,0,1-10.695.435,27.831,27.831,0,0,1-4.444-1.432,17.849,17.849,0,0,1-2.139-1.087l-.664-.4a12.568,12.568,0,0,0,2.416.091c.743-.118,1.472-.087,2.157-.236a15.64,15.64,0,0,0,4.536-1.613,8.451,8.451,0,0,0,2.047-1.323,6.5,6.5,0,0,1-2.25-.4,7.537,7.537,0,0,1-4.794-4.766c.741.08,2.875.27,3.375-.145a5.573,5.573,0,0,1-2.471-.979,7.149,7.149,0,0,1-3.559-6.379l.774.362a8.366,8.366,0,0,0,1.586.435,2.3,2.3,0,0,0,1.033.091h-.037c-.381-.437-1-.728-1.383-1.2a7.537,7.537,0,0,1-1.7-6.76,8.57,8.57,0,0,1,.811-1.939l.037.018a4.573,4.573,0,0,0,.682.779,13.787,13.787,0,0,0,2.25,2.12,22.393,22.393,0,0,0,9.238,4.4,14.642,14.642,0,0,0,3.393.435,6.825,6.825,0,0,1,.037-3.5,7.378,7.378,0,0,1,4.278-5,9.26,9.26,0,0,1,1.678-.508Z" fill="#faefe9"/>
    <path id="facebook" d="M650.6,3890.306v4.862s-3.542-.358-4.429,1.016c-.485.75-.2,2.948-.24,4.527h4.7c-.4,1.846-.682,3.1-.974,4.694h-3.751v15.105H639.4c0-4.657,0-10.09,0-15.046h-2.77v-4.753h2.739c.14-3.475.193-6.918,1.9-8.671C643.187,3890.07,645.016,3890.306,650.6,3890.306Z" fill="#faefe9"/>
  </g>
</svg>
